<svg xmlns="http://www.w3.org/2000/svg" xmlns:xlink="http://www.w3.org/1999/xlink" contentStyleType="text/css" data-diagram-type="DESCRIPTION" height="341px" preserveAspectRatio="none" style="width:261px;height:341px;background:#FFFFFF;" version="1.1" viewBox="0 0 261 341" width="261px" zoomAndPan="magnify">
  <defs/>
  <g><!--cluster Leaf Library-->
    <g class="cluster" data-entity="Leaf Library" data-source-line="1" data-uid="ent0002" id="cluster_Leaf Library">
      <polygon fill="none" points="27.6636,16,37.6636,6,237.6636,6,237.6636,221.59,227.6636,231.59,27.6636,231.59,27.6636,16" style="stroke:#181818;stroke-width:1;"/>
      <line style="stroke:#181818;stroke-width:1;" x1="227.6636" x2="237.6636" y1="16" y2="6"/>
      <line style="stroke:#181818;stroke-width:1;" x1="27.6636" x2="227.6636" y1="16" y2="16"/>
      <line style="stroke:#181818;stroke-width:1;" x1="227.6636" x2="227.6636" y1="16" y2="231.59"/>
      <text fill="#000000" font-family="sans-serif" font-size="14" font-weight="bold" lengthAdjust="spacing" textLength="94.9512" x="81.1881" y="31.9951">Leaf Library</text>
    </g><!--entity Svelte Frontend-->
    <g class="entity" data-entity="Svelte Frontend" data-source-line="2" data-uid="ent0003" id="entity_Svelte Frontend">
      <rect fill="#F1F1F1" height="46.2969" rx="2.5" ry="2.5" style="stroke:#181818;stroke-width:0.5;" width="151.3369" x="44.0036" y="46"/>
      <rect fill="#F1F1F1" height="10" style="stroke:#181818;stroke-width:0.5;" width="15" x="175.3406" y="51"/>
      <rect fill="#F1F1F1" height="2" style="stroke:#181818;stroke-width:0.5;" width="4" x="173.3406" y="53"/>
      <rect fill="#F1F1F1" height="2" style="stroke:#181818;stroke-width:0.5;" width="4" x="173.3406" y="57"/>
      <text fill="#000000" font-family="sans-serif" font-size="14" lengthAdjust="spacing" textLength="111.3369" x="59.0036" y="78.9951">Svelte Frontend</text>
    </g><!--entity Node/Hapi Backend-->
    <g class="entity" data-entity="Node.Hapi Backend" data-source-line="3" data-uid="ent0004" id="entity_Node.Hapi Backend">
      <rect fill="#F1F1F1" height="46.2969" rx="2.5" ry="2.5" style="stroke:#181818;stroke-width:0.5;" width="177.9492" x="43.6936" y="169.3"/>
      <rect fill="#F1F1F1" height="10" style="stroke:#181818;stroke-width:0.5;" width="15" x="201.6429" y="174.3"/>
      <rect fill="#F1F1F1" height="2" style="stroke:#181818;stroke-width:0.5;" width="4" x="199.6429" y="176.3"/>
      <rect fill="#F1F1F1" height="2" style="stroke:#181818;stroke-width:0.5;" width="4" x="199.6429" y="180.3"/>
      <text fill="#000000" font-family="sans-serif" font-size="14" lengthAdjust="spacing" textLength="137.9492" x="58.6936" y="202.2951">Node/Hapi Backend</text>
    </g><!--entity External API-->
    <g class="entity" data-entity="External API" data-source-line="6" data-uid="ent0005" id="entity_External API">
      <path d="M16.0843,287.0742 C20.4433,281.9234 24.0864,281.1175 28.1275,287.4087 C31.3262,280.1045 36.9268,279.4062 41.4073,286.2014 C44.8163,281.1843 50.0974,279.4549 53.5804,286.1244 C55.9153,278.7525 61.6223,277.1233 66.6627,283.5615 C70.409,279.1366 75.7259,278.8404 78.0806,285.0549 C82.4875,279.8677 86.1301,279.2605 89.6946,285.8833 C95.0429,280.8851 100.0199,281.1849 103.5834,287.9844 C107.3515,282.6935 112.6006,281.5252 116.0354,288.3276 C125.7903,288.9789 129.152,293.425 125.23,302.7785 C127.9665,312.1061 125.6356,318.4834 114.548,318.2926 C111.4176,324.4412 107.2583,325.156 103.162,319.2012 C100.7095,326.4121 95.8222,326.0637 91.2273,321.3444 C87.5034,328.2325 83.2523,328.0627 77.9517,323.1126 C74.7385,327.9034 70.3445,328.6915 66.5657,323.776 C62.0663,329.6487 57.8158,329.8893 53.1614,323.9519 C47.9637,329.7112 42.9946,328.5906 40.4756,321.3399 C35.578,325.8845 31.9354,324.934 29.4929,318.812 C24.8917,323.6114 20.8262,323.8476 17.0304,317.8798 C9.2966,316.1133 6.4678,310.42 11.3651,303.6313 C6,296.3694 6.9694,290.209 16.0843,287.0742" fill="#F1F1F1" style="stroke:#181818;stroke-width:0.5;"/>
      <text fill="#000000" font-family="sans-serif" font-size="14" lengthAdjust="spacing" textLength="84.9297" x="22.2036" y="306.5851">External API</text>
    </g><!--entity MongoDB-->
    <g class="entity" data-entity="MongoDB" data-source-line="7" data-uid="ent0006" id="entity_MongoDB">
      <path d="M156.9936,289.09 C156.9936,279.09 200.6709,279.09 200.6709,279.09 C200.6709,279.09 244.3481,279.09 244.3481,289.09 L244.3481,314.3869 C244.3481,324.3869 200.6709,324.3869 200.6709,324.3869 C200.6709,324.3869 156.9936,324.3869 156.9936,314.3869 L156.9936,289.09" fill="#F1F1F1" style="stroke:#181818;stroke-width:0.5;"/>
      <path d="M156.9936,289.09 C156.9936,299.09 200.6709,299.09 200.6709,299.09 C200.6709,299.09 244.3481,299.09 244.3481,289.09" fill="none" style="stroke:#181818;stroke-width:0.5;"/>
      <text fill="#000000" font-family="sans-serif" font-size="14" lengthAdjust="spacing" textLength="67.3545" x="166.9936" y="316.0851">MongoDB</text>
    </g><!--link Svelte Frontend to Node/Hapi Backend-->
    <g class="link" data-entity-1="Svelte Frontend" data-entity-2="Node.Hapi Backend" data-source-line="9" data-uid="lnk7" id="link_Svelte Frontend_Node.Hapi Backend">
      <path d="M122.7216,98.646 C125.0516,120.436 127.2942,141.3242 129.6242,163.0642" fill="none" id="Svelte Frontend-Node/Hapi Backend" style="stroke:#181818;stroke-width:1;"/>
      <polygon fill="#181818" points="122.0836,92.68,119.0632,102.0543,122.6153,97.6517,127.0179,101.2037,122.0836,92.68" style="stroke:#181818;stroke-width:1;"/>
      <polygon fill="#181818" points="130.2636,169.03,133.2818,159.655,129.7308,164.0585,125.3273,160.5075,130.2636,169.03" style="stroke:#181818;stroke-width:1;"/>
      <text fill="#000000" font-family="sans-serif" font-size="13" lengthAdjust="spacing" textLength="104.457" x="128.6636" y="135.3669">REST API (JSON)</text>
    </g><!--link Node/Hapi Backend to External API-->
    <g class="link" data-entity-1="Node.Hapi Backend" data-entity-2="External API" data-source-line="10" data-uid="lnk8" id="link_Node.Hapi Backend_External API">
      <path d="M115.2006,221.0072 C103.5906,239.3172 93.7147,254.9015 82.1147,273.2115" fill="none" id="Node/Hapi Backend-External API" style="stroke:#181818;stroke-width:1;"/>
      <polygon fill="#181818" points="118.4136,215.94,110.216,221.3988,115.7361,220.1627,116.9723,225.6828,118.4136,215.94" style="stroke:#181818;stroke-width:1;"/>
      <polygon fill="#181818" points="78.9036,278.28,87.0992,272.818,81.5795,274.0563,80.3412,268.5366,78.9036,278.28" style="stroke:#181818;stroke-width:1;"/>
    </g><!--link Node/Hapi Backend to MongoDB-->
    <g class="link" data-entity-1="Node.Hapi Backend" data-entity-2="MongoDB" data-source-line="11" data-uid="lnk9" id="link_Node.Hapi Backend_MongoDB">
      <path d="M150.1355,221.008 C161.8155,239.438 171.8431,255.2512 183.4531,273.5812" fill="none" id="Node/Hapi Backend-MongoDB" style="stroke:#181818;stroke-width:1;"/>
      <polygon fill="#181818" points="146.9236,215.94,148.3627,225.6832,149.6002,220.1633,155.12,221.4007,146.9236,215.94" style="stroke:#181818;stroke-width:1;"/>
      <polygon fill="#181818" points="186.6636,278.65,185.2271,268.9065,183.9882,274.426,178.4687,273.1872,186.6636,278.65" style="stroke:#181818;stroke-width:1;"/>
    </g><!--SRC=[TOx13i5G44NtynMJMR5ex4Ka6XMaIjGFJFkcqgWtpVC84V-kY4MZrlVSSwzL8qYnS85ncJbsDy8x8EPwhDMAzKZfHIelE7DglLX3xJHf18CvroM6d1_U-GCWh_HiaAAh5sUvmibcGM3OSyQdPc-bTg_Ja01-x3WAWd6N5eUuZTBTIuMzPRfE-j15VUhjuV_SzyWJ]--></g>
</svg>
